# xmcd CD database file
#
# Track frame offsets:
#	187
#	15142
#	31062
#	54347
#	74930
#	104120
#	123027
#
# Disc length: 1936 seconds
#
# Revision: 0
# Processed by: cddbd v1.5.1PL0 Copyright (c) Steve Scherf et al.
# Submitted via: CDex 1.50
#
DISCID=55078e07
DTITLE=McCoy Tyner - McCoy Tyner plays Ellington
DYEAR=1964
DGENRE=Jazz
TTITLE0=Duke's Place
TTITLE1=Caravan
TTITLE2=Solitude
TTITLE3=Searchin'
TTITLE4=Mr. Gentle and Mr. Cool
TTITLE5=Satin Doll
TTITLE6=Gypsy without A Song
EXTD=YEAR: 1964
EXTT0=
EXTT1=
EXTT2=
EXTT3=
EXTT4=
EXTT5=
EXTT6=
PLAYORDER=
